<svg width="153" height="108" viewBox="0 0 153 108" fill="none" xmlns="http://www.w3.org/2000/svg">
<path d="M75 1H78C118.869 1 152 34.1309 152 75V107H1V75C1 34.1309 34.1309 1 75 1Z" fill="black"/>
<path d="M75 1H78C118.869 1 152 34.1309 152 75V107H1V75C1 34.1309 34.1309 1 75 1Z" stroke="black" stroke-width="2"/>
<path d="M34.6309 94.91C31.5975 94.91 28.7975 94.1867 26.2309 92.74C23.7109 91.2933 21.7042 89.31 20.2109 86.79C18.7175 84.27 17.9709 81.4233 17.9709 78.25C17.9709 75.31 18.7175 72.6033 20.2109 70.13C21.7042 67.61 23.7342 65.6033 26.3009 64.11C28.9142 62.6167 31.7842 61.87 34.9109 61.87C37.5242 61.87 39.7642 62.29 41.6309 63.13C43.4975 63.97 45.3175 65.2767 47.0909 67.05V70.83C45.5509 68.5433 43.8242 66.8167 41.9109 65.65C40.0442 64.4367 37.7109 63.83 34.9109 63.83C32.3442 63.83 29.9175 64.5067 27.6309 65.86C25.3909 67.1667 23.5942 68.94 22.2409 71.18C20.8875 73.42 20.2109 75.8233 20.2109 78.39C20.2109 81.19 20.8642 83.71 22.1709 85.95C23.4775 88.1433 25.2275 89.87 27.4209 91.13C29.6609 92.3433 32.0642 92.95 34.6309 92.95C39.8575 92.95 44.0109 90.5933 47.0909 85.88V89.66C45.4109 91.4333 43.5442 92.7633 41.4909 93.65C39.4842 94.49 37.1975 94.91 34.6309 94.91ZM56.017 55.29C55.3636 55.29 54.7803 55.0567 54.267 54.59C53.8003 54.1233 53.567 53.54 53.567 52.84C53.567 52.1867 53.8003 51.6267 54.267 51.16C54.7803 50.6933 55.3636 50.46 56.017 50.46C56.6703 50.46 57.2303 50.6933 57.697 51.16C58.2103 51.6267 58.467 52.1867 58.467 52.84C58.467 53.54 58.2103 54.1233 57.697 54.59C57.2303 55.0567 56.6703 55.29 56.017 55.29ZM54.897 62.5H57.137V94H54.897V62.5ZM67.5741 62.5H69.8141V69.5C70.8407 67.1667 72.5907 65.3 75.0641 63.9C77.5374 62.4533 80.2674 61.73 83.2541 61.73C87.1274 61.73 90.1841 62.9667 92.4241 65.44C94.7107 67.8667 95.8541 71.2733 95.8541 75.66V94H93.6141V75.66C93.6141 71.88 92.6807 68.94 90.8141 66.84C88.9941 64.74 86.4274 63.69 83.1141 63.69C80.6874 63.69 78.4474 64.25 76.3941 65.37C74.3874 66.4433 72.7774 67.9367 71.5641 69.85C70.3974 71.7633 69.8141 73.9333 69.8141 76.36V94H67.5741V62.5ZM120.023 92.88C122.45 92.88 124.76 92.25 126.953 90.99C129.147 89.73 130.967 88.0033 132.413 85.81V89.38C130.687 91.2933 128.797 92.6933 126.743 93.58C124.69 94.42 122.357 94.84 119.743 94.84C116.85 94.84 114.12 94.07 111.553 92.53C109.033 90.99 107.003 88.9367 105.463 86.37C103.97 83.8033 103.223 81.0733 103.223 78.18C103.223 75.0533 103.97 72.2533 105.463 69.78C106.957 67.26 108.987 65.3 111.553 63.9C114.167 62.5 117.06 61.8 120.233 61.8C125.087 61.8 129.217 63.7133 132.623 67.54L110.643 89.24C112.183 90.5 113.677 91.4333 115.123 92.04C116.57 92.6 118.203 92.88 120.023 92.88ZM105.463 77.97C105.463 81.8433 106.747 85.1567 109.313 87.91L129.823 67.54C128.283 66.1867 126.79 65.23 125.343 64.67C123.897 64.0633 122.17 63.76 120.163 63.76C117.317 63.76 114.773 64.39 112.533 65.65C110.34 66.8633 108.613 68.5433 107.353 70.69C106.093 72.8367 105.463 75.2633 105.463 77.97ZM126.323 48.92H129.193L119.463 56.97H116.523L126.323 48.92Z" fill="white"/>
</svg>
